<svg width="200" height="75" viewBox="0 0 420 60" fill="none" xmlns="http://www.w3.org/2000/svg">
<path fill="#1C272D" opacity="1.000000" stroke="none" 
	d="
M306.000000,101.000000 
	C204.000015,101.000000 102.500023,101.000000 1.000027,101.000000 
	C1.000018,67.666679 1.000018,34.333366 1.000009,1.000036 
	C139.333298,1.000024 277.666595,1.000024 415.999939,1.000012 
	C415.999939,34.333298 415.999939,67.666595 415.999969,100.999947 
	C379.500000,101.000000 343.000000,101.000000 306.000000,101.000000 
M78.019142,73.856522 
	C78.046997,75.881966 78.074852,77.907410 77.949013,80.731422 
	C79.282974,81.462845 80.598404,82.237091 81.988548,82.838699 
	C82.091873,82.883423 82.731400,81.689163 83.121658,81.070892 
	C81.993523,80.392288 80.865387,79.713684 79.547203,78.178879 
	C79.422592,76.445969 79.297974,74.713051 79.451347,72.174255 
	C79.351715,68.783379 79.252090,65.392502 79.419685,61.124805 
	C79.217514,58.110958 79.015350,55.097115 78.700516,51.509323 
	C78.826965,51.360916 78.953415,51.212513 79.816917,50.963505 
	C83.597183,48.930763 84.242165,46.199802 82.201805,42.380978 
	C79.885262,38.045227 77.962730,33.498962 75.927849,28.333048 
	C78.569489,23.700403 77.841934,22.313011 72.426361,22.286900 
	C57.861580,22.216669 43.296185,22.247688 28.731205,22.293167 
	C27.534235,22.296904 26.338556,22.714920 25.439703,22.884373 
	C25.753933,25.278187 26.003431,27.178894 25.887802,29.705254 
	C25.100548,31.535448 24.383400,33.399727 23.513184,35.189587 
	C20.650324,41.077942 16.609709,46.913467 22.900095,53.917046 
	C22.900095,62.159904 22.900095,70.402763 22.900095,78.645615 
	C22.522440,78.464920 22.144783,78.284225 21.767128,78.103523 
	C21.132328,79.574020 20.497530,81.044510 20.553022,82.949463 
	C23.695366,82.628075 26.837708,82.306694 30.026855,82.149162 
	C30.026855,82.149162 30.193827,82.115082 30.490564,82.175972 
	C30.490564,82.175972 30.787060,82.113930 31.322496,82.816978 
	C36.840988,82.818756 42.359478,82.820534 48.486320,82.814148 
	C48.688889,82.823776 48.891460,82.833412 49.852524,83.017250 
	C50.884171,82.958229 51.915821,82.899200 53.699150,82.917503 
	C54.447739,82.859024 55.196331,82.800545 56.879486,82.845345 
	C59.527954,82.856285 62.176418,82.874748 64.824890,82.876740 
	C72.026573,82.882149 72.026573,82.879379 72.122589,75.513733 
	C72.122589,75.513733 72.033524,75.324417 72.588776,75.082359 
	C72.708313,74.734833 72.827850,74.387306 73.154739,73.642639 
	C73.154739,73.642639 73.170364,73.194901 73.590141,73.121895 
	C73.590141,73.121895 73.985367,72.962708 74.789429,72.845840 
	C74.864311,66.548164 74.939201,60.250496 75.023735,53.590866 
	C75.023735,53.590866 75.007378,53.229156 75.822311,53.196953 
	C76.547569,54.021618 77.740204,54.763988 77.902855,55.687721 
	C78.264809,57.743309 78.111458,59.889641 78.018593,62.905045 
	C78.068459,66.269745 78.118317,69.634445 78.019142,73.856522 
M377.231262,37.526592 
	C377.154999,44.976669 377.006592,52.427174 377.050568,59.876537 
	C377.062317,61.866539 377.662231,63.853069 378.797913,65.994652 
	C381.835419,66.466972 381.326294,64.317894 381.327759,62.560421 
	C381.332458,56.946556 381.329498,51.332684 381.329498,45.718811 
	C386.691406,51.498764 390.591614,57.562424 394.891724,63.327839 
	C395.902649,64.683205 398.263611,65.031647 400.761139,65.470169 
	C400.839844,58.021713 400.991150,50.572849 400.948883,43.125080 
	C400.937592,41.133919 400.334808,39.146114 399.195343,37.005123 
	C396.163818,36.529869 396.635956,38.661617 396.636078,40.443508 
	C396.636536,46.199478 396.636261,51.955448 396.636261,57.711418 
	C391.310394,51.718140 387.397797,45.578239 383.088043,39.731060 
	C382.080597,38.364174 379.726624,37.989761 377.231262,37.526592 
M173.855927,57.108379 
	C173.083405,56.487103 172.110107,56.004269 171.570831,55.222172 
	C167.987030,50.024738 164.633865,44.661541 160.887299,39.587368 
	C159.825790,38.149727 157.704239,37.494797 155.159225,35.916958 
	C155.159225,46.067841 155.220306,54.535648 155.128220,63.001793 
	C155.092926,66.246452 156.441269,66.583809 159.431641,65.286461 
	C159.431641,58.592316 159.431641,51.918312 159.431641,44.015514 
	C164.265747,51.133144 168.250259,57.241478 172.530014,63.135441 
	C173.632919,64.654320 175.664139,65.499146 178.168015,67.300430 
	C178.168015,56.192966 178.168015,46.767513 178.168015,37.215820 
	C176.748169,37.215820 175.509506,37.215820 173.964844,37.215820 
	C173.964844,43.744049 173.964844,50.042908 173.855927,57.108379 
M215.415527,36.967537 
	C212.809006,36.967537 210.202484,36.967537 207.148636,36.967537 
	C207.148636,45.554932 207.148621,53.644722 207.148621,61.734509 
	C207.148621,63.014442 207.148636,64.294380 207.148636,65.498306 
	C223.536682,67.852646 230.994888,63.964329 231.852158,52.946766 
	C232.647919,42.719677 227.170563,37.073055 215.415527,36.967537 
M277.142242,57.429718 
	C277.142670,59.256390 277.232605,61.088428 277.123505,62.908535 
	C276.936920,66.020325 278.333740,66.535667 280.653442,65.732224 
	C282.465698,61.190651 278.598907,55.615154 284.370636,52.100365 
	C286.333191,55.153019 288.208405,58.048618 290.062164,60.957912 
	C293.435089,66.251411 293.429779,66.254799 297.587524,65.254173 
	C294.079346,59.648636 290.598175,54.086224 287.149384,48.575588 
	C290.749329,44.727139 294.061798,41.185993 298.118073,36.849697 
	C288.901550,36.833260 287.400452,45.749916 280.969025,48.546696 
	C280.969025,44.474277 280.969025,40.872280 280.969025,37.270283 
	C280.504883,37.007877 280.040741,36.745476 279.576599,36.483070 
	C278.765594,37.657135 277.310303,38.801327 277.254242,40.010399 
	C277.000671,45.478661 277.142700,50.965267 277.142242,57.429718 
M342.000305,63.287643 
	C341.770264,64.041992 341.540222,64.796333 341.310181,65.550682 
	C341.623840,65.894684 341.937500,66.238686 342.251129,66.582695 
	C343.570160,65.476105 345.742767,64.571671 346.061005,63.228050 
	C347.462952,57.308739 352.002167,59.488247 355.601135,58.970898 
	C359.042419,58.476212 360.879669,59.750546 361.557465,63.128010 
	C362.142242,66.042053 363.914337,66.786591 366.671051,65.450264 
	C363.458496,56.822575 360.333893,48.247601 357.017883,39.747299 
	C356.581055,38.627464 355.058136,37.060970 354.230347,37.169300 
	C353.007996,37.329269 351.401703,38.581051 350.925079,39.758858 
	C347.875641,47.294487 345.090576,54.937099 342.000305,63.287643 
M329.699402,58.729588 
	C327.245148,52.208317 324.856049,45.660927 322.264465,39.194714 
	C321.887970,38.255360 320.574249,37.177879 319.636444,37.121220 
	C318.691895,37.064163 317.116760,37.980820 316.776489,38.847263 
	C313.296112,47.710056 310.011169,56.649590 306.630402,65.677811 
	C313.132538,67.282814 311.062042,60.779030 314.157013,59.013405 
	C315.521637,59.013405 317.192078,59.150692 318.832336,58.986649 
	C323.081696,58.561680 326.669556,58.816936 327.621735,64.222229 
	C327.787964,65.166023 330.098297,65.732140 331.418365,66.472694 
	C331.647247,66.144432 331.876160,65.816162 332.105042,65.487892 
	C331.391937,63.482018 330.678802,61.476139 329.699402,58.729588 
M106.713074,59.310280 
	C108.890198,61.399673 107.333961,67.438042 113.525513,65.610832 
	C110.263145,56.779964 107.121262,48.070282 103.761719,39.445381 
	C103.350182,38.388859 101.761108,37.138447 100.738899,37.156799 
	C99.726753,37.174973 98.247650,38.491013 97.822464,39.571812 
	C94.444092,48.159576 91.268158,56.826973 88.030098,65.469933 
	C88.336662,65.830933 88.643219,66.191933 88.949783,66.552933 
	C90.274704,65.610321 92.531311,64.852066 92.760712,63.692692 
	C93.676933,59.062050 96.609650,58.589695 100.412437,58.983692 
	C102.219231,59.170895 104.058472,59.044830 106.713074,59.310280 
M264.376129,59.431110 
	C264.555939,52.786053 264.856140,46.139629 264.781067,39.497456 
	C264.770264,38.540493 262.953674,37.603928 261.972717,36.657925 
	C260.931671,43.209278 260.955322,48.696697 260.925537,54.183819 
	C260.890015,60.734268 258.847046,63.216763 253.629639,63.144142 
	C248.813629,63.077114 246.064209,59.847298 246.033722,54.136711 
	C246.003616,48.493591 246.027145,42.850185 246.027145,37.206905 
	C245.492874,36.997993 244.958603,36.789085 244.424332,36.580173 
	C243.821320,37.726704 242.740143,38.855854 242.697739,40.022758 
	C242.510239,45.182190 242.493958,50.356506 242.657135,55.517803 
	C242.857498,61.855141 245.423996,65.083336 250.916336,66.399345 
	C256.573029,67.754730 261.026489,65.664108 264.376129,59.431110 
M124.153511,50.506229 
	C124.153954,54.665909 124.241463,58.827991 124.126808,62.984493 
	C124.037834,66.210365 125.421471,66.585587 128.262100,65.392151 
	C128.262100,61.675091 128.262100,58.067223 128.262100,53.992401 
	C131.190720,53.992401 133.827759,54.164608 136.434067,53.954811 
	C141.154785,53.574818 144.136642,50.399284 144.311279,45.878658 
	C144.488953,41.279640 141.722275,37.525070 137.229614,37.132019 
	C133.003357,36.762276 128.719330,37.052746 124.153519,37.052746 
	C124.153519,41.582184 124.153519,45.547726 124.153511,50.506229 
M190.851608,54.482353 
	C190.851608,58.250782 190.851608,62.019211 190.851608,65.787636 
	C191.400574,66.028572 191.949554,66.269501 192.498520,66.510429 
	C193.283218,65.319664 194.714218,64.146545 194.747299,62.935253 
	C194.955368,55.315678 194.780426,47.686600 194.887451,40.062843 
	C194.931458,36.928474 193.625473,36.476398 191.158203,37.329918 
	C191.022797,37.942474 190.893951,38.257023 190.892471,38.572174 
	C190.869186,43.544792 190.862274,48.517487 190.851608,54.482353 
z"/>
<path fill="#E3FDFD" opacity="1.000000" stroke="none" 
	d="
M78.813187,52.083267 
	C79.015350,55.097115 79.217514,58.110958 79.039993,61.562065 
	C78.660294,61.999321 78.168129,61.998985 78.168137,61.998985 
	C78.111458,59.889641 78.264809,57.743309 77.902855,55.687721 
	C77.740204,54.763988 76.547569,54.021618 75.171440,53.088505 
	C74.347816,52.921913 74.175056,52.863770 73.985809,52.545265 
	C73.949051,52.112175 73.928780,51.939438 73.811096,51.587128 
	C73.465645,51.176559 73.219864,51.178959 72.647461,51.305176 
	C71.546837,50.747330 70.775116,50.299057 69.993378,49.521519 
	C69.621849,48.121658 69.260330,47.051064 68.898819,45.980465 
	C68.643555,46.028873 68.388283,46.077282 68.133018,46.125690 
	C68.070702,47.032784 68.008377,47.939877 67.988708,48.926659 
	C68.031364,49.006348 68.064766,49.184010 67.775085,49.146034 
	C66.888313,49.484276 66.291214,49.860493 65.376259,50.412239 
	C64.392258,50.761120 63.726112,50.934471 62.605507,51.052536 
	C60.279854,50.977810 58.408665,50.958359 56.478775,50.925510 
	C56.420082,50.912113 56.317265,50.974773 56.018188,50.741539 
	C55.215076,50.495899 54.711033,50.483498 54.430347,50.197502 
	C54.105354,49.624020 53.557011,49.324135 52.939735,48.616348 
	C52.394905,44.765476 51.918999,41.322502 51.443092,37.879524 
	C50.959984,37.889641 50.476871,37.899754 49.993763,37.909870 
	C49.993763,41.521820 49.993763,45.133770 49.761597,48.851196 
	C49.360287,48.973713 49.191143,48.990757 48.696152,49.043831 
	C47.581142,50.053551 46.791981,51.027233 45.964470,52.264801 
	C45.640953,52.721539 45.355785,52.914394 44.642162,53.048019 
	C42.774162,53.056190 41.334621,53.123585 39.594994,53.011478 
	C35.571423,48.961143 31.835333,47.775383 27.740755,52.451149 
	C27.142208,53.134655 25.640091,53.026909 24.197176,53.208401 
	C23.597445,53.088303 23.356604,53.045090 23.115763,53.001873 
	C16.609709,46.913467 20.650324,41.077942 23.513184,35.189587 
	C24.383400,33.399727 25.100548,31.535448 26.510330,29.394707 
	C30.388828,29.089888 33.644798,29.095615 36.981964,29.376221 
	C37.748501,29.445719 38.433842,29.240341 39.580303,29.027420 
	C51.983921,29.027988 63.926411,29.036102 75.868904,29.044216 
	C77.962730,33.498962 79.885262,38.045227 82.201805,42.380978 
	C84.242165,46.199802 83.597183,48.930763 79.162903,50.958794 
	C78.610313,51.330479 78.711754,51.706875 78.813187,52.083267 
M35.580402,38.746346 
	C35.965221,38.769642 36.350037,38.792938 36.734856,38.816231 
	C36.595516,38.400272 36.456181,37.984318 36.316841,37.568359 
	C36.013737,37.813171 35.710632,38.057983 35.580402,38.746346 
M66.234955,37.519341 
	C66.087883,37.526905 65.940804,37.534470 65.793732,37.542034 
	C65.891991,37.588596 65.990257,37.635159 66.234955,37.519341 
z"/>
<path fill="#D4F4F2" opacity="1.000000" stroke="none" 
	d="
M173.910385,56.725075 
	C173.964844,50.042908 173.964844,43.744049 173.964844,37.215820 
	C175.509506,37.215820 176.748169,37.215820 178.168015,37.215820 
	C178.168015,46.767513 178.168015,56.192966 178.168015,67.300430 
	C175.664139,65.499146 173.632919,64.654320 172.530014,63.135441 
	C168.250259,57.241478 164.265747,51.133144 159.431641,44.015514 
	C159.431641,51.918312 159.431641,58.592316 159.431641,65.286461 
	C156.441269,66.583809 155.092926,66.246452 155.128220,63.001793 
	C155.220306,54.535648 155.159225,46.067841 155.159225,35.916958 
	C157.704239,37.494797 159.825790,38.149727 160.887299,39.587368 
	C164.633865,44.661541 167.987030,50.024738 171.570831,55.222172 
	C172.110107,56.004269 173.083405,56.487103 173.910385,56.725075 
z"/>
<path fill="#E3FDFD" opacity="1.000000" stroke="none" 
	d="
M73.985367,72.962708 
	C73.985367,72.962708 73.590141,73.121895 73.003731,73.066116 
	C71.644859,73.063416 70.872391,73.116501 69.627136,73.116859 
	C63.767544,73.015289 58.380745,72.966454 52.977066,72.647781 
	C52.944393,72.198410 52.928596,72.018860 52.945286,71.383606 
	C52.964207,65.802643 52.950638,60.677372 53.336334,55.548149 
	C55.062038,55.536190 56.388474,55.528191 58.044571,55.690819 
	C59.566856,55.746990 60.759487,55.632530 62.413872,55.522758 
	C65.960579,55.583961 69.045532,55.640480 72.183899,55.863052 
	C72.461922,56.292927 72.686531,56.556751 72.944679,57.300247 
	C73.307495,62.406658 73.636772,67.033394 73.992783,71.985451 
	C74.008125,72.528084 73.996742,72.745399 73.985367,72.962708 
z"/>
<path fill="#DBF8F6" opacity="1.000000" stroke="none" 
	d="
M400.003479,65.843323 
	C398.263611,65.031647 395.902649,64.683205 394.891724,63.327839 
	C390.591614,57.562424 386.691406,51.498764 381.329498,45.718811 
	C381.329498,51.332684 381.332458,56.946556 381.327759,62.560421 
	C381.326294,64.317894 381.835419,66.466972 378.389893,65.460114 
	C377.985321,55.669960 377.988739,46.414341 377.992126,37.158722 
	C379.726624,37.989761 382.080597,38.364174 383.088043,39.731060 
	C387.397797,45.578239 391.310394,51.718140 396.636261,57.711418 
	C396.636261,51.955448 396.636536,46.199478 396.636078,40.443508 
	C396.635956,38.661617 396.163818,36.529869 399.605255,37.538857 
	C400.011261,47.329502 400.007355,56.586407 400.003479,65.843323 
z"/>
<path fill="#D2F1EF" opacity="1.000000" stroke="none" 
	d="
M215.883713,36.967545 
	C227.170563,37.073055 232.647919,42.719677 231.852158,52.946766 
	C230.994888,63.964329 223.536682,67.852646 207.148636,65.498306 
	C207.148636,64.294380 207.148621,63.014442 207.148621,61.734509 
	C207.148621,53.644722 207.148636,45.554932 207.148636,36.967537 
	C210.202484,36.967537 212.809006,36.967537 215.883713,36.967545 
M216.262589,62.979191 
	C225.549957,61.951138 229.093826,57.435352 227.461960,48.708397 
	C226.090363,41.373310 220.403442,38.559742 211.325211,40.743450 
	C211.325211,47.994774 211.325211,55.250343 211.325211,62.800430 
	C212.808563,62.866093 214.092422,62.922928 216.262589,62.979191 
z"/>
<path fill="#CFEFEE" opacity="1.000000" stroke="none" 
	d="
M277.142242,56.937492 
	C277.142700,50.965267 277.000671,45.478661 277.254242,40.010399 
	C277.310303,38.801327 278.765594,37.657135 279.576599,36.483070 
	C280.040741,36.745476 280.504883,37.007877 280.969025,37.270283 
	C280.969025,40.872280 280.969025,44.474277 280.969025,48.546696 
	C287.400452,45.749916 288.901550,36.833260 298.118073,36.849697 
	C294.061798,41.185993 290.749329,44.727139 287.149384,48.575588 
	C290.598175,54.086224 294.079346,59.648636 297.587524,65.254173 
	C293.429779,66.254799 293.435089,66.251411 290.062164,60.957912 
	C288.208405,58.048618 286.333191,55.153019 284.370636,52.100365 
	C278.598907,55.615154 282.465698,61.190651 280.653442,65.732224 
	C278.333740,66.535667 276.936920,66.020325 277.123505,62.908535 
	C277.232605,61.088428 277.142670,59.256390 277.142242,56.937492 
z"/>
<path fill="#D4F1EE" opacity="1.000000" stroke="none" 
	d="
M342.109436,62.916084 
	C345.090576,54.937099 347.875641,47.294487 350.925079,39.758858 
	C351.401703,38.581051 353.007996,37.329269 354.230347,37.169300 
	C355.058136,37.060970 356.581055,38.627464 357.017883,39.747299 
	C360.333893,48.247601 363.458496,56.822575 366.671051,65.450264 
	C363.914337,66.786591 362.142242,66.042053 361.557465,63.128010 
	C360.879669,59.750546 359.042419,58.476212 355.601135,58.970898 
	C352.002167,59.488247 347.462952,57.308739 346.061005,63.228050 
	C345.742767,64.571671 343.570160,65.476105 342.251129,66.582695 
	C341.937500,66.238686 341.623840,65.894684 341.310181,65.550682 
	C341.540222,64.796333 341.770264,64.041992 342.109436,62.916084 
M352.156403,46.907810 
	C351.168793,49.817997 350.181213,52.728184 349.131958,55.820061 
	C352.465454,55.820061 355.400482,55.820061 358.850983,55.820061 
	C357.241547,51.447464 355.753296,47.404106 353.950714,42.506714 
	C353.153748,44.449066 352.789612,45.336609 352.156403,46.907810 
z"/>
<path fill="#D4F1EE" opacity="1.000000" stroke="none" 
	d="
M329.832550,59.099922 
	C330.678802,61.476139 331.391937,63.482018 332.105042,65.487892 
	C331.876160,65.816162 331.647247,66.144432 331.418365,66.472694 
	C330.098297,65.732140 327.787964,65.166023 327.621735,64.222229 
	C326.669556,58.816936 323.081696,58.561680 318.832336,58.986649 
	C317.192078,59.150692 315.521637,59.013405 314.157013,59.013405 
	C311.062042,60.779030 313.132538,67.282814 306.630402,65.677811 
	C310.011169,56.649590 313.296112,47.710056 316.776489,38.847263 
	C317.116760,37.980820 318.691895,37.064163 319.636444,37.121220 
	C320.574249,37.177879 321.887970,38.255360 322.264465,39.194714 
	C324.856049,45.660927 327.245148,52.208317 329.832550,59.099922 
M321.272217,47.355507 
	C320.750427,45.980854 320.228638,44.606201 319.393982,42.407307 
	C317.639648,47.278805 316.155334,51.400509 314.580353,55.774017 
	C318.022491,55.774017 320.921143,55.774017 324.293182,55.774017 
	C323.308929,52.974438 322.444641,50.516144 321.272217,47.355507 
z"/>
<path fill="#D5F2EE" opacity="1.000000" stroke="none" 
	d="
M106.298050,59.185482 
	C104.058472,59.044830 102.219231,59.170895 100.412437,58.983692 
	C96.609650,58.589695 93.676933,59.062050 92.760712,63.692692 
	C92.531311,64.852066 90.274704,65.610321 88.949783,66.552933 
	C88.643219,66.191933 88.336662,65.830933 88.030098,65.469933 
	C91.268158,56.826973 94.444092,48.159576 97.822464,39.571812 
	C98.247650,38.491013 99.726753,37.174973 100.738899,37.156799 
	C101.761108,37.138447 103.350182,38.388859 103.761719,39.445381 
	C107.121262,48.070282 110.263145,56.779964 113.525513,65.610832 
	C107.333961,67.438042 108.890198,61.399673 106.298050,59.185482 
M103.653244,55.995720 
	C104.139740,55.420544 105.153755,54.673439 105.031013,54.296810 
	C103.821655,50.586132 102.423500,46.936993 100.718826,42.288563 
	C98.876251,47.441093 97.421989,51.507748 95.815933,55.998878 
	C98.577263,55.998878 100.717896,55.998878 103.653244,55.995720 
z"/>
<path fill="#D7F3EF" opacity="1.000000" stroke="none" 
	d="
M264.244537,59.817749 
	C261.026489,65.664108 256.573029,67.754730 250.916336,66.399345 
	C245.423996,65.083336 242.857498,61.855141 242.657135,55.517803 
	C242.493958,50.356506 242.510239,45.182190 242.697739,40.022758 
	C242.740143,38.855854 243.821320,37.726704 244.424332,36.580173 
	C244.958603,36.789085 245.492874,36.997993 246.027145,37.206905 
	C246.027145,42.850185 246.003616,48.493591 246.033722,54.136711 
	C246.064209,59.847298 248.813629,63.077114 253.629639,63.144142 
	C258.847046,63.216763 260.890015,60.734268 260.925537,54.183819 
	C260.955322,48.696697 260.931671,43.209278 261.972717,36.657925 
	C262.953674,37.603928 264.770264,38.540493 264.781067,39.497456 
	C264.856140,46.139629 264.555939,52.786053 264.244537,59.817749 
z"/>
<path fill="#B3C9CB" opacity="1.000000" stroke="none" 
	d="
M75.898376,28.688633 
	C63.926411,29.036102 51.983921,29.027988 39.344139,28.935070 
	C38.064819,28.933958 37.482796,29.017653 36.900768,29.101345 
	C33.644798,29.095615 30.388828,29.089888 26.692894,29.081881 
	C26.003431,27.178894 25.753933,25.278187 25.439703,22.884373 
	C26.338556,22.714920 27.534235,22.296904 28.731205,22.293167 
	C43.296185,22.247688 57.861580,22.216669 72.426361,22.286900 
	C77.841934,22.313011 78.569489,23.700403 75.898376,28.688633 
M71.169373,26.265657 
	C72.666267,26.103222 74.163155,25.940786 75.660049,25.778351 
	C75.618111,25.437866 75.576180,25.097382 75.534241,24.756897 
	C59.275051,24.756897 43.015862,24.756897 26.756670,24.756897 
	C26.753571,25.259867 26.750473,25.762835 26.747374,26.265804 
	C41.243282,26.265804 55.739193,26.265804 71.169373,26.265657 
z"/>
<path fill="#D2F2F3" opacity="1.000000" stroke="none" 
	d="
M124.153519,50.009750 
	C124.153519,45.547726 124.153519,41.582184 124.153519,37.052746 
	C128.719330,37.052746 133.003357,36.762276 137.229614,37.132019 
	C141.722275,37.525070 144.488953,41.279640 144.311279,45.878658 
	C144.136642,50.399284 141.154785,53.574818 136.434067,53.954811 
	C133.827759,54.164608 131.190720,53.992401 128.262100,53.992401 
	C128.262100,58.067223 128.262100,61.675091 128.262100,65.392151 
	C125.421471,66.585587 124.037834,66.210365 124.126808,62.984493 
	C124.241463,58.827991 124.153954,54.665909 124.153519,50.009750 
M127.991173,46.439674 
	C128.067459,47.878223 128.143753,49.316776 128.296631,52.199520 
	C132.473877,50.781013 136.200867,49.928513 139.406937,48.141457 
	C140.226898,47.684410 140.071548,42.880024 139.208954,42.463074 
	C135.919296,40.872944 132.157623,40.259296 127.991165,39.122295 
	C127.991165,42.231865 127.991165,43.864296 127.991173,46.439674 
z"/>
<path fill="#E3FDFD" opacity="1.000000" stroke="none" 
	d="
M47.877972,82.822311 
	C42.359478,82.820534 36.840988,82.818756 31.140858,81.996338 
	C30.959221,73.424644 30.959221,65.673599 30.959221,57.922554 
	C30.704090,57.926823 30.448957,57.931091 30.193827,57.935360 
	C30.193827,65.995270 30.193827,74.055176 30.193827,82.115082 
	C30.193827,82.115082 30.026855,82.149162 29.792606,81.913528 
	C29.346773,81.401810 29.135191,81.125725 28.895535,80.391426 
	C28.867498,74.343933 28.867376,68.754639 28.867603,63.165352 
	C28.867966,54.292717 28.868172,54.296452 37.941662,54.036167 
	C38.594814,54.017426 39.244762,53.887180 40.323830,53.881554 
	C42.190952,53.933762 43.630451,53.913197 45.438583,53.940659 
	C46.875511,54.315334 47.943802,54.641987 48.993256,55.159348 
	C48.974419,55.350060 49.032585,55.728893 48.704170,56.031944 
	C48.209824,65.164101 48.043900,73.993202 47.877972,82.822311 
M32.137989,58.982460 
	C32.137989,66.391197 32.137989,73.799942 32.137989,81.256248 
	C37.256279,81.256248 41.799957,81.256248 46.298683,81.256248 
	C46.298683,73.189857 46.298683,65.462624 46.298683,57.117718 
	C41.433338,57.456303 36.882576,57.772995 32.137989,58.982460 
z"/>
<path fill="#D8EFE0" opacity="1.000000" stroke="none" 
	d="
M190.851608,53.986259 
	C190.862274,48.517487 190.869186,43.544792 190.892471,38.572174 
	C190.893951,38.257023 191.022797,37.942474 191.158203,37.329918 
	C193.625473,36.476398 194.931458,36.928474 194.887451,40.062843 
	C194.780426,47.686600 194.955368,55.315678 194.747299,62.935253 
	C194.714218,64.146545 193.283218,65.319664 192.498520,66.510429 
	C191.949554,66.269501 191.400574,66.028572 190.851608,65.787636 
	C190.851608,62.019211 190.851608,58.250782 190.851608,53.986259 
z"/>
<path fill="#D3EBEC" opacity="1.000000" stroke="none" 
	d="
M49.032585,55.728893 
	C49.032585,55.728893 48.974419,55.350060 49.264374,55.238049 
	C50.037987,55.382786 50.521645,55.639534 51.002380,56.369324 
	C50.996750,60.323086 50.801033,63.819294 51.078651,67.277504 
	C51.203857,68.837135 52.272305,70.321045 52.912796,71.839310 
	C52.928596,72.018860 52.944393,72.198410 52.949242,72.961731 
	C52.956093,73.754700 52.973885,73.963898 53.003185,74.357918 
	C53.014694,74.542740 53.043442,74.911980 52.743801,75.158180 
	C52.611931,77.882980 52.779697,80.361580 52.947468,82.840179 
	C51.915821,82.899200 50.884171,82.958229 49.444695,82.472351 
	C49.035439,73.194603 49.034012,64.461746 49.032585,55.728893 
z"/>
<path fill="#222D33" opacity="1.000000" stroke="none" 
	d="
M72.130486,55.696999 
	C69.045532,55.640480 65.960579,55.583961 62.406757,55.192806 
	C61.333286,54.281776 60.728683,53.705383 60.449890,53.077793 
	C61.481277,52.723007 62.186859,52.419411 62.949226,51.866295 
	C63.023998,51.447124 63.041981,51.277470 63.059967,51.107819 
	C63.726112,50.934471 64.392258,50.761120 65.502533,50.667313 
	C66.652687,50.225906 67.358727,49.704956 68.064766,49.184006 
	C68.064766,49.184010 68.031364,49.006348 68.279068,49.004162 
	C69.018974,49.284912 69.511185,49.567844 70.003395,49.850780 
	C70.775116,50.299057 71.546837,50.747330 72.628952,51.371368 
	C72.939339,51.547138 72.928787,51.684219 72.938507,52.007339 
	C73.299583,52.488850 73.650948,52.647236 74.002304,52.805626 
	C74.175056,52.863770 74.347816,52.921913 74.763977,53.104607 
	C75.007378,53.229156 75.023735,53.590866 74.631714,53.784912 
	C73.536613,54.551640 72.833549,55.124317 72.130486,55.696999 
M64.439835,52.479729 
	C64.439835,52.479729 64.520256,52.435570 64.439835,52.479729 
z"/>
<path fill="#97ABAE" opacity="1.000000" stroke="none" 
	d="
M72.121727,75.721069 
	C72.026573,82.879379 72.026573,82.882149 64.824890,82.876740 
	C62.176418,82.874748 59.527954,82.856285 56.402885,82.490196 
	C55.963943,81.732208 56.001602,81.329369 56.497253,81.000854 
	C61.141735,81.075172 65.328217,81.075172 69.911140,81.075172 
	C69.809929,78.882111 69.729950,77.149292 70.005219,75.259514 
	C70.619240,75.111092 70.878021,75.119621 71.216515,75.331436 
	C71.296219,75.534706 71.684525,75.736099 71.684525,75.736099 
	C71.684525,75.736099 72.121727,75.721069 72.121727,75.721069 
z"/>
<path fill="#B4CACC" opacity="1.000000" stroke="none" 
	d="
M72.183899,55.863052 
	C72.833549,55.124317 73.536613,54.551640 74.626884,53.965893 
	C74.939201,60.250496 74.864311,66.548164 74.387398,72.904274 
	C73.996742,72.745399 74.008125,72.528084 73.953842,71.546310 
	C73.562492,66.128098 73.236816,61.474335 72.911140,56.820576 
	C72.686531,56.556751 72.461922,56.292927 72.183899,55.863052 
z"/>
<path fill="#DEF8F8" opacity="1.000000" stroke="none" 
	d="
M23.007929,53.459457 
	C23.356604,53.045090 23.597445,53.088303 24.063686,53.641472 
	C24.073395,63.115459 23.857704,72.079498 23.271511,80.993393 
	C21.888250,81.467178 20.875490,81.991089 19.862730,82.515007 
	C20.497530,81.044510 21.132328,79.574020 21.767128,78.103523 
	C22.144783,78.284225 22.522440,78.464920 22.900095,78.645615 
	C22.900095,70.402763 22.900095,62.159904 23.007929,53.459457 
z"/>
<path fill="#B3C9CB" opacity="1.000000" stroke="none" 
	d="
M56.039261,80.926529 
	C56.001602,81.329369 55.963943,81.732208 55.935604,82.438553 
	C55.196331,82.800545 54.447739,82.859024 53.323311,82.878845 
	C52.779697,80.361580 52.611931,77.882980 53.172440,75.141068 
	C54.732121,75.026543 55.563519,75.175339 56.271008,75.707458 
	C56.111149,77.702690 56.075207,79.314613 56.039261,80.926529 
z"/>
<path fill="#1BABDB" opacity="1.000000" stroke="none" 
	d="
M377.611694,37.342659 
	C377.988739,46.414341 377.985321,55.669960 377.987000,65.383385 
	C377.662231,63.853069 377.062317,61.866539 377.050568,59.876537 
	C377.006592,52.427174 377.154999,44.976669 377.611694,37.342659 
z"/>
<path fill="#C3AB2C" opacity="1.000000" stroke="none" 
	d="
M400.382294,65.656738 
	C400.007355,56.586407 400.011261,47.329502 400.009369,37.614685 
	C400.334808,39.146114 400.937592,41.133919 400.948883,43.125080 
	C400.991150,50.572849 400.839844,58.021713 400.382294,65.656738 
z"/>
<path fill="#8B9EA1" opacity="1.000000" stroke="none" 
	d="
M48.704170,56.031944 
	C49.034012,64.461746 49.035439,73.194603 49.065453,82.385254 
	C48.891460,82.833412 48.688889,82.823776 48.182144,82.818230 
	C48.043900,73.993202 48.209824,65.164101 48.704170,56.031944 
z"/>
<path fill="#697A7D" opacity="1.000000" stroke="none" 
	d="
M30.342196,82.145523 
	C30.193827,74.055176 30.193827,65.995270 30.193827,57.935360 
	C30.448957,57.931091 30.704090,57.926823 30.959221,57.922554 
	C30.959221,65.673599 30.959221,73.424644 30.873140,81.644806 
	C30.787060,82.113930 30.490564,82.175972 30.342196,82.145523 
z"/>
<path fill="#E3FDFD" opacity="1.000000" stroke="none" 
	d="
M56.394920,75.324142 
	C55.563519,75.175339 54.732121,75.026543 53.472080,74.894867 
	C53.043442,74.911980 53.014694,74.542740 53.470985,74.321953 
	C59.318356,74.010948 64.709435,73.920731 70.454369,73.878906 
	C71.521278,73.964790 72.234329,74.002281 72.947388,74.039780 
	C72.827850,74.387306 72.708313,74.734833 72.098770,75.100433 
	C71.608757,75.118500 71.136810,75.128159 71.136810,75.128159 
	C70.878021,75.119621 70.619240,75.111092 69.567001,75.292282 
	C64.647331,75.429390 60.521126,75.376762 56.394920,75.324142 
z"/>
<path fill="#CFE7E8" opacity="1.000000" stroke="none" 
	d="
M20.207876,82.732239 
	C20.875490,81.991089 21.888250,81.467178 23.694881,81.161285 
	C25.967037,81.202751 27.445324,81.026192 28.923611,80.849632 
	C29.135191,81.125725 29.346773,81.401810 29.769203,81.831604 
	C26.837708,82.306694 23.695366,82.628075 20.207876,82.732239 
z"/>
<path fill="#9CB0B2" opacity="1.000000" stroke="none" 
	d="
M79.737244,79.035088 
	C80.865387,79.713684 81.993523,80.392288 83.121658,81.070892 
	C82.731400,81.689163 82.091873,82.883423 81.988548,82.838699 
	C80.598404,82.237091 79.282974,81.462845 78.268173,80.305687 
	C78.970634,79.598328 79.353935,79.316704 79.737244,79.035088 
z"/>
<path fill="#E2FCFC" opacity="1.000000" stroke="none" 
	d="
M78.093361,62.452015 
	C78.168129,61.998985 78.660294,61.999321 78.906380,62.000473 
	C79.252090,65.392502 79.351715,68.783379 79.144867,72.582291 
	C78.615013,72.996147 78.391609,72.999084 78.168175,72.999146 
	C78.118317,69.634445 78.068459,66.269745 78.093361,62.452015 
z"/>
<path fill="#E2FCFC" opacity="1.000000" stroke="none" 
	d="
M78.093658,73.427834 
	C78.391609,72.999084 78.615013,72.996147 79.005875,72.985229 
	C79.297974,74.713051 79.422592,76.445969 79.642227,78.606979 
	C79.353935,79.316704 78.970634,79.598328 78.345016,79.906403 
	C78.074852,77.907410 78.046997,75.881966 78.093658,73.427834 
z"/>
<path fill="#8B9EA1" opacity="1.000000" stroke="none" 
	d="
M73.051064,73.841209 
	C72.234329,74.002281 71.521278,73.964790 70.448120,73.713814 
	C70.088013,73.500328 70.099930,73.169586 70.099930,73.169586 
	C70.872391,73.116501 71.644859,73.063416 72.793839,73.102615 
	C73.170364,73.194901 73.154739,73.642639 73.051064,73.841209 
z"/>
<path fill="#9CB0B2" opacity="1.000000" stroke="none" 
	d="
M78.756851,51.796295 
	C78.711754,51.706875 78.610313,51.330479 78.794373,51.009102 
	C78.953415,51.212513 78.826965,51.360916 78.756851,51.796295 
z"/>
<path fill="#2F3C41" opacity="1.000000" stroke="none" 
	d="
M71.216515,75.331436 
	C71.136810,75.128159 71.608757,75.118500 71.821136,75.221458 
	C72.033524,75.324417 72.122589,75.513733 72.122162,75.617401 
	C72.121727,75.721069 71.684525,75.736099 71.684525,75.736099 
	C71.684525,75.736099 71.296219,75.534706 71.216515,75.331436 
z"/>
<path fill="#2F3C41" opacity="1.000000" stroke="none" 
	d="
M28.895536,80.391426 
	C27.445324,81.026192 25.967037,81.202751 24.065380,81.211426 
	C23.857704,72.079498 24.073395,63.115459 24.422575,53.718353 
	C25.640091,53.026909 27.142208,53.134655 27.740755,52.451149 
	C31.835333,47.775383 35.571423,48.961143 39.596016,53.165916 
	C39.897133,53.499859 39.896202,53.808781 39.896202,53.808781 
	C39.244762,53.887180 38.594814,54.017426 37.941662,54.036167 
	C28.868172,54.296452 28.867966,54.292717 28.867603,63.165352 
	C28.867376,68.754639 28.867498,74.343933 28.895536,80.391426 
z"/>
<path fill="#232E34" opacity="1.000000" stroke="none" 
	d="
M51.005302,55.896282 
	C50.521645,55.639534 50.037987,55.382786 49.283211,55.047340 
	C47.943802,54.641987 46.875511,54.315334 45.396832,53.744274 
	C44.986446,53.499866 45.070618,53.107246 45.070618,53.107246 
	C45.355785,52.914394 45.640953,52.721539 46.280090,52.168671 
	C47.430038,50.875034 48.226017,49.941414 49.021996,49.007797 
	C49.191143,48.990757 49.360287,48.973713 50.266380,48.954254 
	C52.130787,49.420185 53.258244,49.888538 54.346752,50.337151 
	C54.307804,50.317406 54.206993,50.471100 54.206993,50.471100 
	C54.711033,50.483498 55.215076,50.495899 55.934807,51.096157 
	C57.033939,52.198910 57.917381,52.713802 58.650917,53.446918 
	C58.238979,54.283489 57.976944,54.901836 57.714912,55.520187 
	C56.388474,55.528191 55.062038,55.536190 53.163094,55.366241 
	C52.062160,55.424290 51.533733,55.660286 51.005302,55.896282 
z"/>
<path fill="#E0FAFA" opacity="1.000000" stroke="none" 
	d="
M54.385700,50.356895 
	C53.258244,49.888538 52.130787,49.420185 50.498543,48.848778 
	C49.993763,45.133770 49.993763,41.521820 49.993763,37.909870 
	C50.476871,37.899754 50.959984,37.889641 51.443092,37.879524 
	C51.918999,41.322502 52.394905,44.765476 53.205635,49.030479 
	C53.822212,50.020638 54.103958,50.188766 54.385700,50.356895 
z"/>
<path fill="#E0FAFA" opacity="1.000000" stroke="none" 
	d="
M48.696152,49.043831 
	C48.226017,49.941414 47.430038,50.875034 46.318439,51.904785 
	C46.791981,51.027233 47.581142,50.053551 48.696152,49.043831 
z"/>
<path fill="#D6EFF0" opacity="1.000000" stroke="none" 
	d="
M58.800819,53.228699 
	C57.917381,52.713802 57.033939,52.198910 56.233883,51.329391 
	C56.317265,50.974773 56.420082,50.912113 56.767239,51.240166 
	C59.040409,51.750751 60.966427,51.933289 62.892441,52.115822 
	C62.186859,52.419411 61.481277,52.723007 60.116817,53.072777 
	C59.238895,53.155537 59.019855,53.192120 58.800819,53.228699 
z"/>
<path fill="#E0FAFA" opacity="1.000000" stroke="none" 
	d="
M69.993378,49.521519 
	C69.511185,49.567844 69.018974,49.284912 68.236412,48.924473 
	C68.008377,47.939877 68.070702,47.032784 68.133018,46.125690 
	C68.388283,46.077282 68.643555,46.028873 68.898819,45.980465 
	C69.260330,47.051064 69.621849,48.121658 69.993378,49.521519 
z"/>
<path fill="#697A7D" opacity="1.000000" stroke="none" 
	d="
M62.949226,51.866302 
	C60.966427,51.933289 59.040409,51.750751 56.825935,51.253563 
	C58.408665,50.958359 60.279854,50.977810 62.605507,51.052536 
	C63.041981,51.277470 63.023998,51.447124 62.949226,51.866302 
z"/>
<path fill="#E0FAFA" opacity="1.000000" stroke="none" 
	d="
M35.493965,38.524570 
	C35.710632,38.057983 36.013737,37.813171 36.316841,37.568359 
	C36.456181,37.984318 36.595516,38.400272 36.734856,38.816231 
	C36.350037,38.792938 35.965221,38.769642 35.493965,38.524570 
z"/>
<path fill="#28343A" opacity="1.000000" stroke="none" 
	d="
M67.775085,49.146030 
	C67.358727,49.704956 66.652687,50.225906 65.820389,50.491783 
	C66.291214,49.860493 66.888313,49.484276 67.775085,49.146030 
z"/>
<path fill="#9FB4B6" opacity="1.000000" stroke="none" 
	d="
M36.981964,29.376221 
	C37.482796,29.017653 38.064819,28.933958 38.883011,28.942614 
	C38.433842,29.240341 37.748501,29.445719 36.981964,29.376221 
z"/>
<path fill="#74868A" opacity="1.000000" stroke="none" 
	d="
M44.642159,53.048019 
	C45.070618,53.107246 44.986446,53.499866 45.028198,53.696251 
	C43.630451,53.913197 42.190952,53.933762 40.323830,53.881554 
	C39.896202,53.808781 39.897133,53.499859 39.896107,53.345421 
	C41.334621,53.123585 42.774162,53.056190 44.642159,53.048019 
z"/>
<path fill="#E0FAFA" opacity="1.000000" stroke="none" 
	d="
M66.161736,37.600529 
	C65.990257,37.635159 65.891991,37.588596 65.793732,37.542034 
	C65.940804,37.534470 66.087883,37.526905 66.161736,37.600529 
z"/>
<path fill="#74868A" opacity="1.000000" stroke="none" 
	d="
M54.346752,50.337151 
	C54.103958,50.188766 53.822212,50.020638 53.274567,49.438377 
	C53.557011,49.324135 54.105354,49.624020 54.430347,50.197502 
	C54.206993,50.471100 54.307804,50.317406 54.346752,50.337151 
z"/>
<path fill="#28343A" opacity="1.000000" stroke="none" 
	d="
M72.928787,51.684219 
	C72.928787,51.684219 72.939339,51.547138 72.957855,51.480942 
	C73.219864,51.178959 73.465645,51.176559 73.562164,51.614098 
	C73.250015,51.775166 73.089401,51.729694 72.928787,51.684219 
z"/>
<path fill="#E0FAFA" opacity="1.000000" stroke="none" 
	d="
M72.938507,52.007339 
	C73.089401,51.729694 73.250015,51.775166 73.659561,51.793671 
	C73.928780,51.939438 73.949051,52.112175 73.985809,52.545265 
	C73.650948,52.647236 73.299583,52.488850 72.938507,52.007339 
z"/>
<path fill="#7F9194" opacity="1.000000" stroke="none" 
	d="
M51.002380,56.369324 
	C51.533733,55.660286 52.062160,55.424290 52.763832,55.370197 
	C52.950638,60.677372 52.964207,65.802643 52.945286,71.383606 
	C52.272305,70.321045 51.203857,68.837135 51.078651,67.277504 
	C50.801033,63.819294 50.996750,60.323086 51.002380,56.369324 
z"/>
<path fill="#AEC4C6" opacity="1.000000" stroke="none" 
	d="
M69.627136,73.116859 
	C70.099930,73.169586 70.088013,73.500328 70.094269,73.665421 
	C64.709435,73.920731 59.318356,74.010948 53.459476,74.137131 
	C52.973885,73.963898 52.956093,73.754700 52.966122,73.231552 
	C58.380745,72.966454 63.767544,73.015289 69.627136,73.116859 
z"/>
<path fill="#7F9194" opacity="1.000000" stroke="none" 
	d="
M72.944679,57.300247 
	C73.236816,61.474335 73.562492,66.128098 73.927109,71.220993 
	C73.636772,67.033394 73.307495,62.406658 72.944679,57.300247 
z"/>
<path fill="#7F9194" opacity="1.000000" stroke="none" 
	d="
M58.650917,53.446918 
	C59.019855,53.192120 59.238895,53.155537 59.791008,53.123970 
	C60.728683,53.705383 61.333286,54.281776 61.945004,55.188122 
	C60.759487,55.632530 59.566856,55.746990 58.044571,55.690819 
	C57.976944,54.901836 58.238979,54.283489 58.650917,53.446918 
z"/>
<path fill="#242932" opacity="1.000000" stroke="none" 
	d="
M215.819427,62.979477 
	C214.092422,62.922928 212.808563,62.866093 211.325211,62.800430 
	C211.325211,55.250343 211.325211,47.994774 211.325211,40.743450 
	C220.403442,38.559742 226.090363,41.373310 227.461960,48.708397 
	C229.093826,57.435352 225.549957,61.951138 215.819427,62.979477 
z"/>
<path fill="#2A313A" opacity="1.000000" stroke="none" 
	d="
M352.290924,46.565979 
	C352.789612,45.336609 353.153748,44.449066 353.950714,42.506714 
	C355.753296,47.404106 357.241547,51.447464 358.850983,55.820061 
	C355.400482,55.820061 352.465454,55.820061 349.131958,55.820061 
	C350.181213,52.728184 351.168793,49.817997 352.290924,46.565979 
z"/>
<path fill="#292F39" opacity="1.000000" stroke="none" 
	d="
M321.426270,47.706676 
	C322.444641,50.516144 323.308929,52.974438 324.293182,55.774017 
	C320.921143,55.774017 318.022491,55.774017 314.580353,55.774017 
	C316.155334,51.400509 317.639648,47.278805 319.393982,42.407307 
	C320.228638,44.606201 320.750427,45.980854 321.426270,47.706676 
z"/>
<path fill="#2A313A" opacity="1.000000" stroke="none" 
	d="
M103.255890,55.997299 
	C100.717896,55.998878 98.577263,55.998878 95.815933,55.998878 
	C97.421989,51.507748 98.876251,47.441093 100.718826,42.288563 
	C102.423500,46.936993 103.821655,50.586132 105.031013,54.296810 
	C105.153755,54.673439 104.139740,55.420544 103.255890,55.997299 
z"/>
<path fill="#1D282E" opacity="1.000000" stroke="none" 
	d="
M70.702240,26.265732 
	C55.739193,26.265804 41.243282,26.265804 26.747374,26.265804 
	C26.750473,25.762835 26.753571,25.259867 26.756670,24.756897 
	C43.015862,24.756897 59.275051,24.756897 75.534241,24.756897 
	C75.576180,25.097382 75.618111,25.437866 75.660049,25.778351 
	C74.163155,25.940786 72.666267,26.103222 70.702240,26.265732 
z"/>
<path fill="#1C2B34" opacity="1.000000" stroke="none" 
	d="
M127.991165,45.968201 
	C127.991165,43.864296 127.991165,42.231865 127.991165,39.122295 
	C132.157623,40.259296 135.919296,40.872944 139.208954,42.463074 
	C140.071548,42.880024 140.226898,47.684410 139.406937,48.141457 
	C136.200867,49.928513 132.473877,50.781013 128.296631,52.199520 
	C128.143753,49.316776 128.067459,47.878223 127.991165,45.968201 
z"/>
<path fill="#2C383E" opacity="1.000000" stroke="none" 
	d="
M32.234901,58.536072 
	C36.882576,57.772995 41.433338,57.456303 46.298683,57.117718 
	C46.298683,65.462624 46.298683,73.189857 46.298683,81.256248 
	C41.799957,81.256248 37.256279,81.256248 32.137989,81.256248 
	C32.137989,73.799942 32.137989,66.391197 32.234901,58.536072 
z"/>
<path fill="#28343A" opacity="1.000000" stroke="none" 
	d="
M64.480042,52.457649 
	C64.520256,52.435570 64.439835,52.479729 64.480042,52.457649 
z"/>
<path fill="#1B262C" opacity="1.000000" stroke="none" 
	d="
M56.271008,75.707458 
	C60.521126,75.376762 64.647331,75.429390 69.211761,75.449242 
	C69.729950,77.149292 69.809929,78.882111 69.911140,81.075172 
	C65.328217,81.075172 61.141735,81.075172 56.497253,81.000854 
	C56.075207,79.314613 56.111149,77.702690 56.271008,75.707458 
z"/>
</svg>
