<svg width="1" height="50" viewBox="0 0 80 60" fill="none" xmlns="http://www.w3.org/2000/svg">
<path fill="#1C272D" opacity="1.000000" stroke="none" 
	d="
M48.000000,88.000000 
	C32.000000,88.000000 16.500000,88.000000 1.000000,88.000000 
	C1.000000,59.000000 1.000000,30.000000 1.000000,1.000000 
	C27.000000,1.000000 53.000000,1.000000 79.000000,1.000000 
	C79.000000,30.000000 79.000000,59.000000 79.000000,88.000000 
	C68.833336,88.000000 58.666668,88.000000 48.000000,88.000000 
M19.247847,79.263214 
	C19.247847,79.263214 19.673347,79.229698 20.305984,79.849388 
	C25.941008,79.608963 31.576029,79.368546 37.508072,79.188423 
	C37.508072,79.188423 37.804150,79.123627 37.989384,79.159981 
	C37.989384,79.159981 38.040089,78.978157 38.386932,79.799843 
	C46.435173,79.799843 54.483414,79.799843 62.131599,79.799843 
	C62.368141,76.308083 62.543846,73.714417 63.284107,70.678162 
	C63.517887,69.773178 63.751667,68.868195 63.996925,67.032433 
	C64.002190,61.687046 64.007462,56.341656 64.653236,51.060589 
	C65.296707,51.055252 65.940170,51.049915 66.934654,51.915932 
	C66.964127,56.554249 67.014359,61.192543 67.018951,65.830887 
	C67.030273,77.266777 67.021851,77.266785 69.075157,78.504478 
	C69.075157,70.216553 69.122078,61.881947 69.032509,53.548801 
	C69.016121,52.023655 68.444389,50.504478 68.232605,48.289852 
	C72.528641,46.701572 73.764420,43.943249 71.721642,39.704975 
	C69.138069,34.344688 66.695396,28.916491 64.203331,23.542124 
	C48.062897,23.542124 32.089222,23.542124 16.745291,23.542124 
	C14.468819,28.535149 12.661888,33.368664 10.137835,37.793068 
	C7.539809,42.347141 8.105254,45.830856 11.992170,49.870235 
	C11.967358,55.996967 11.982360,62.124210 11.903128,68.250237 
	C11.853878,72.058067 13.318048,76.504227 7.206224,77.997948 
	C7.487642,78.479286 7.769061,78.960625 8.050479,79.441963 
	C11.360826,79.247147 14.671174,79.052322 18.463045,78.977509 
	C18.463045,78.977509 18.958502,78.949440 19.247847,79.263214 
M33.502224,19.257713 
	C27.404631,19.270622 21.307037,19.283531 15.209444,19.296440 
	C15.238919,19.904270 15.268394,20.512102 15.297871,21.119932 
	C16.911226,21.119932 18.524584,21.119926 20.137939,21.119932 
	C33.767025,21.119968 47.396801,21.057955 61.024204,21.209414 
	C62.498966,21.225805 63.959991,22.478388 66.124504,23.480211 
	C66.173866,23.286621 66.985619,21.549168 66.623909,21.255095 
	C65.456451,20.305960 63.866272,19.374474 62.422783,19.348782 
	C53.118031,19.183167 43.808956,19.260313 33.502224,19.257713 
z"/>
<path fill="#E3FDFD" opacity="1.000000" stroke="none" 
	d="
M12.153705,48.936806 
	C8.105254,45.830856 7.539809,42.347141 10.137835,37.793068 
	C12.661888,33.368664 14.468819,28.535149 16.745291,23.542124 
	C32.089222,23.542124 48.062897,23.542124 64.203331,23.542124 
	C66.695396,28.916491 69.138069,34.344688 71.721642,39.704975 
	C73.764420,43.943249 72.528641,46.701572 67.819382,48.743752 
	C67.160172,49.249424 66.914169,49.301205 66.303513,49.299400 
	C64.611809,48.868118 63.284760,48.490417 61.941078,47.854164 
	C61.257313,47.408337 60.590176,47.221054 59.563389,47.064453 
	C56.532074,47.404301 53.581310,47.046917 51.629883,50.026814 
	C49.781765,50.016552 48.357693,50.068378 46.581642,50.043083 
	C43.361629,47.287975 40.248116,45.459991 35.828289,47.117279 
	C35.630215,47.922543 35.750217,48.664532 35.612072,49.609306 
	C34.932388,49.929901 34.510857,50.047703 33.663086,50.102432 
	C31.805271,50.064415 30.373692,50.089470 28.644411,49.966393 
	C26.900097,48.435951 25.453484,47.053638 23.928391,45.413048 
	C23.230337,45.685268 22.610764,46.215763 21.758776,46.866989 
	C21.351892,46.994560 21.177427,47.001404 20.792068,46.799213 
	C19.386379,47.350323 18.191584,48.110474 16.815531,48.996899 
	C16.634272,49.123177 16.194796,49.168613 15.801788,49.059372 
	C14.323756,48.945690 13.238730,48.941246 12.153705,48.936806 
M55.175774,32.081661 
	C55.068398,32.490425 54.961018,32.899189 54.853642,33.307953 
	C55.107933,33.281174 55.576054,33.278862 55.582363,33.223713 
	C55.628876,32.817158 55.583225,32.400059 55.175774,32.081661 
M23.749981,42.446671 
	C23.933203,42.184223 24.116426,41.921776 24.299650,41.659328 
	C24.027714,41.827469 23.755777,41.995609 23.749981,42.446671 
M55.956028,37.589138 
	C56.076401,37.306652 56.196774,37.024162 56.317150,36.741676 
	C56.119648,36.941067 55.922142,37.140457 55.956028,37.589138 
M25.520954,32.762096 
	C25.575922,32.811558 25.630888,32.861023 25.520954,32.762096 
z"/>
<path fill="#E3FDFD" opacity="1.000000" stroke="none" 
	d="
M64.012726,50.996269 
	C64.007462,56.341656 64.002190,61.687046 63.696178,67.599144 
	C62.981911,68.207741 62.568394,68.249619 61.687843,68.180580 
	C54.957195,68.069664 48.693573,68.069664 41.778885,68.069664 
	C41.778885,62.961617 41.778885,58.521896 41.778885,54.082172 
	C41.218662,54.080795 40.658436,54.079418 40.098213,54.078037 
	C40.098213,59.070671 40.098213,64.063309 39.913052,69.419830 
	C39.654305,72.768288 39.580723,75.752846 39.140541,78.798584 
	C38.529320,78.899231 38.284706,78.938690 38.040089,78.978157 
	C38.040089,78.978157 37.989384,79.159981 37.981590,78.671799 
	C37.973797,70.425499 37.973797,62.667381 37.973797,54.909267 
	C37.719547,54.913883 37.465302,54.918499 37.211052,54.923115 
	C37.211052,62.991447 37.211052,71.059784 37.211052,79.128120 
	C31.576029,79.368546 25.941008,79.608963 20.105040,79.068161 
	C19.841351,69.479881 19.778608,60.672817 20.004753,51.551750 
	C23.176332,51.120350 26.059027,51.002953 29.368793,50.934315 
	C31.227171,50.933578 32.658474,50.884083 34.491985,50.907894 
	C38.924393,52.988770 42.922047,51.130569 47.357151,50.948441 
	C49.205109,50.981686 50.629150,50.946339 52.508469,50.959106 
	C56.646740,51.003574 60.329731,50.999920 64.012726,50.996269 
M35.890556,60.659199 
	C35.890556,58.721973 35.890556,56.784748 35.890556,54.709381 
	C30.815603,54.709381 26.271706,54.709381 21.661686,54.709381 
	C21.661686,62.734642 21.661686,70.456406 21.661686,78.289619 
	C26.471571,78.289619 31.023933,78.289619 35.890556,78.289619 
	C35.890556,72.534927 35.890556,67.079330 35.890556,60.659199 
z"/>
<path fill="#DFF9F9" opacity="1.000000" stroke="none" 
	d="
M38.213509,79.389000 
	C38.284706,78.938690 38.529320,78.899231 39.487240,78.721634 
	C40.771267,77.325905 41.354267,76.073708 41.909622,74.809364 
	C42.611797,73.210762 43.291466,71.602280 44.449783,69.990929 
	C50.313808,69.984467 55.708897,69.985130 61.164268,70.254623 
	C61.722881,70.722542 62.221218,70.921646 62.719551,71.120743 
	C62.543846,73.714417 62.368141,76.308083 62.131599,79.799843 
	C54.483414,79.799843 46.435173,79.799843 38.213509,79.389000 
M45.458164,78.017761 
	C50.020229,78.222404 54.582291,78.427040 59.437218,78.644814 
	C59.354576,76.755981 59.300587,75.522026 59.234535,74.012383 
	C55.109512,74.012383 51.305386,73.820587 47.548538,74.156876 
	C46.686481,74.234039 45.987000,76.127335 45.458164,78.017761 
z"/>
<path fill="#B2C9CA" opacity="1.000000" stroke="none" 
	d="
M34.001762,19.257751 
	C43.808956,19.260313 53.118031,19.183167 62.422783,19.348782 
	C63.866272,19.374474 65.456451,20.305960 66.623909,21.255095 
	C66.985619,21.549168 66.173866,23.286621 66.124504,23.480211 
	C63.959991,22.478388 62.498966,21.225805 61.024204,21.209414 
	C47.396801,21.057955 33.767025,21.119968 20.137939,21.119932 
	C18.524584,21.119926 16.911226,21.119932 15.297871,21.119932 
	C15.268394,20.512102 15.238919,19.904270 15.209444,19.296440 
	C21.307037,19.283531 27.404631,19.270622 34.001762,19.257751 
z"/>
<path fill="#A9BFC0" opacity="1.000000" stroke="none" 
	d="
M12.072937,49.403519 
	C13.238730,48.941246 14.323756,48.945690 15.762814,49.351700 
	C16.020182,50.133377 15.923517,50.513485 15.395821,50.909660 
	C14.630958,51.427792 14.009751,51.927807 14.006138,52.432243 
	C13.946023,60.824516 13.963298,69.217339 13.963298,77.935196 
	C15.459587,77.935196 16.709934,77.935196 18.010996,78.164726 
	C18.061710,78.394257 17.981522,78.857498 17.981522,78.857498 
	C14.671174,79.052322 11.360826,79.247147 8.050479,79.441963 
	C7.769061,78.960625 7.487642,78.479286 7.206224,77.997948 
	C13.318048,76.504227 11.853878,72.058067 11.903128,68.250237 
	C11.982360,62.124210 11.967358,55.996967 12.072937,49.403519 
z"/>
<path fill="#A0B4B6" opacity="1.000000" stroke="none" 
	d="
M66.668167,49.352985 
	C66.914169,49.301205 67.160172,49.249424 67.767586,49.090096 
	C68.444389,50.504478 69.016121,52.023655 69.032509,53.548801 
	C69.122078,61.881947 69.075157,70.216553 69.075157,78.504478 
	C67.021851,77.266785 67.030273,77.266777 67.018951,65.830887 
	C67.014359,61.192543 66.964127,56.554249 66.670258,51.199070 
	C66.493301,50.105801 66.580734,49.729393 66.668167,49.352985 
z"/>
<path fill="#273238" opacity="1.000000" stroke="none" 
	d="
M66.303513,49.299400 
	C66.580734,49.729393 66.493301,50.105801 66.494751,50.763390 
	C65.940170,51.049915 65.296707,51.055252 64.332977,51.028427 
	C60.329731,50.999920 56.646740,51.003574 52.465958,50.753700 
	C51.968174,50.500172 52.053928,50.088905 52.053928,50.088905 
	C53.581310,47.046917 56.532074,47.404301 59.709335,47.335114 
	C60.795853,47.754292 61.376778,47.933502 61.957706,48.112713 
	C63.284760,48.490417 64.611809,48.868118 66.303513,49.299400 
z"/>
<path fill="#829497" opacity="1.000000" stroke="none" 
	d="
M19.715866,51.865753 
	C19.778608,60.672817 19.841351,69.479881 19.788721,78.758316 
	C19.673347,79.229698 19.247847,79.263214 19.121790,78.641319 
	C18.999763,69.606102 19.003794,61.192783 19.001888,52.554085 
	C19.133144,52.014542 19.373114,51.860222 19.715866,51.865753 
z"/>
<path fill="#D7F0F1" opacity="1.000000" stroke="none" 
	d="
M19.007824,52.779461 
	C19.003794,61.192783 18.999763,69.606102 18.977118,78.484436 
	C18.958502,78.949440 18.463045,78.977509 18.222282,78.917503 
	C17.981522,78.857498 18.061710,78.394257 18.029408,77.700577 
	C18.005976,69.021439 18.014849,61.035980 18.259777,52.946571 
	C18.666498,52.821564 18.837160,52.800514 19.007824,52.779461 
z"/>
<path fill="#718386" opacity="1.000000" stroke="none" 
	d="
M37.359562,79.158272 
	C37.211052,71.059784 37.211052,62.991447 37.211052,54.923115 
	C37.465302,54.918499 37.719547,54.913883 37.973797,54.909267 
	C37.973797,62.667381 37.973797,70.425499 37.888973,78.653618 
	C37.804150,79.123627 37.508072,79.188423 37.359562,79.158272 
z"/>
<path fill="#273238" opacity="1.000000" stroke="none" 
	d="
M63.001831,70.899452 
	C62.221218,70.921646 61.722881,70.722542 61.441727,70.180511 
	C61.824230,69.322212 61.989552,68.806854 62.154877,68.291496 
	C62.568394,68.249619 62.981911,68.207741 63.690437,68.064529 
	C63.751667,68.868195 63.517887,69.773178 63.001831,70.899452 
z"/>
<path fill="#2C383E" opacity="1.000000" stroke="none" 
	d="
M46.933231,50.879852 
	C42.922047,51.130569 38.924393,52.988770 34.482040,50.740635 
	C34.069889,50.500069 34.089325,50.165508 34.089325,50.165504 
	C34.510857,50.047703 34.932388,49.929901 35.868515,49.553635 
	C36.304192,48.548119 36.225277,47.801064 36.146366,47.054005 
	C40.248116,45.459991 43.361629,47.287975 46.613571,50.232731 
	C46.997478,50.499500 46.933231,50.879852 46.933231,50.879852 
z"/>
<path fill="#344146" opacity="1.000000" stroke="none" 
	d="
M19.001888,52.554085 
	C18.837160,52.800514 18.666498,52.821564 18.159622,52.629921 
	C17.157890,51.909355 16.492371,51.401474 15.826853,50.893597 
	C15.923517,50.513485 16.020182,50.133377 16.155821,49.460938 
	C16.194796,49.168613 16.634272,49.123177 17.152452,49.028225 
	C18.781410,48.291599 19.892187,47.649925 21.002962,47.008251 
	C21.177427,47.001404 21.351892,46.994560 22.052895,46.826248 
	C23.055244,46.333630 23.531057,46.002476 24.006870,45.671322 
	C25.453484,47.053638 26.900097,48.435951 28.673317,50.159164 
	C28.999922,50.500061 28.941719,50.885559 28.941719,50.885559 
	C26.059027,51.002953 23.176332,51.120350 20.004753,51.551750 
	C19.373114,51.860222 19.133144,52.014542 19.001888,52.554085 
z"/>
<path fill="#DFF9F9" opacity="1.000000" stroke="none" 
	d="
M20.792068,46.799213 
	C19.892187,47.649925 18.781410,48.291599 17.333712,48.901947 
	C18.191584,48.110474 19.386379,47.350323 20.792068,46.799213 
z"/>
<path fill="#DFF9F9" opacity="1.000000" stroke="none" 
	d="
M23.928391,45.413048 
	C23.531057,46.002476 23.055244,46.333630 22.285311,46.705524 
	C22.610764,46.215763 23.230337,45.685268 23.928391,45.413048 
z"/>
<path fill="#718386" opacity="1.000000" stroke="none" 
	d="
M47.357151,50.948441 
	C46.933231,50.879852 46.997478,50.499500 46.965549,50.309853 
	C48.357693,50.068378 49.781765,50.016552 51.629883,50.026814 
	C52.053928,50.088905 51.968174,50.500172 52.010681,50.705582 
	C50.629150,50.946339 49.205109,50.981686 47.357151,50.948441 
z"/>
<path fill="#718386" opacity="1.000000" stroke="none" 
	d="
M29.368793,50.934319 
	C28.941719,50.885559 28.999922,50.500061 28.971016,50.307289 
	C30.373692,50.089470 31.805271,50.064415 33.663086,50.102436 
	C34.089325,50.165508 34.069889,50.500069 34.079834,50.667328 
	C32.658474,50.884083 31.227171,50.933578 29.368793,50.934319 
z"/>
<path fill="#DFF9F9" opacity="1.000000" stroke="none" 
	d="
M35.828289,47.117279 
	C36.225277,47.801064 36.304192,48.548119 36.126663,49.350845 
	C35.750217,48.664532 35.630215,47.922543 35.828289,47.117279 
z"/>
<path fill="#E0FAFA" opacity="1.000000" stroke="none" 
	d="
M55.371178,32.033970 
	C55.583225,32.400059 55.628876,32.817158 55.582363,33.223713 
	C55.576054,33.278862 55.107933,33.281174 54.853642,33.307953 
	C54.961018,32.899189 55.068398,32.490425 55.371178,32.033970 
z"/>
<path fill="#DFF9F9" opacity="1.000000" stroke="none" 
	d="
M23.616909,42.305206 
	C23.755777,41.995609 24.027714,41.827469 24.299648,41.659328 
	C24.116426,41.921776 23.933203,42.184223 23.616909,42.305206 
z"/>
<path fill="#E0FAFA" opacity="1.000000" stroke="none" 
	d="
M55.840332,37.464493 
	C55.922142,37.140457 56.119648,36.941067 56.317150,36.741676 
	C56.196774,37.024162 56.076401,37.306652 55.840332,37.464493 
z"/>
<path fill="#E0FAFA" opacity="1.000000" stroke="none" 
	d="
M61.941078,47.854164 
	C61.376778,47.933502 60.795853,47.754292 60.068977,47.304428 
	C60.590176,47.221054 61.257313,47.408337 61.941078,47.854164 
z"/>
<path fill="#DFF9F9" opacity="1.000000" stroke="none" 
	d="
M25.603405,32.836288 
	C25.630888,32.861023 25.575922,32.811558 25.603405,32.836288 
z"/>
<path fill="#2C383E" opacity="1.000000" stroke="none" 
	d="
M35.890556,61.141468 
	C35.890556,67.079330 35.890556,72.534927 35.890556,78.289619 
	C31.023933,78.289619 26.471571,78.289619 21.661686,78.289619 
	C21.661686,70.456406 21.661686,62.734642 21.661686,54.709381 
	C26.271706,54.709381 30.815603,54.709381 35.890556,54.709381 
	C35.890556,56.784748 35.890556,58.721973 35.890556,61.141468 
z"/>
<path fill="#718386" opacity="1.000000" stroke="none" 
	d="
M61.687843,68.180580 
	C61.989552,68.806854 61.824230,69.322212 61.381447,69.911682 
	C55.708897,69.985130 50.313808,69.984467 44.108131,70.021385 
	C42.231098,69.724625 41.164654,69.390282 40.098213,69.055939 
	C40.098213,64.063309 40.098213,59.070671 40.098213,54.078037 
	C40.658436,54.079418 41.218662,54.080795 41.778885,54.082172 
	C41.778885,58.521896 41.778885,62.961617 41.778885,68.069664 
	C48.693573,68.069664 54.957195,68.069664 61.687843,68.180580 
z"/>
<path fill="#3C494E" opacity="1.000000" stroke="none" 
	d="
M39.913052,69.419830 
	C41.164654,69.390282 42.231098,69.724625 43.639191,70.028511 
	C43.291466,71.602280 42.611797,73.210762 41.909622,74.809364 
	C41.354267,76.073708 40.771267,77.325905 39.853844,78.660446 
	C39.580723,75.752846 39.654305,72.768288 39.913052,69.419830 
z"/>
<path fill="#1C272D" opacity="1.000000" stroke="none" 
	d="
M45.335430,77.601288 
	C45.987000,76.127335 46.686481,74.234039 47.548538,74.156876 
	C51.305386,73.820587 55.109512,74.012383 59.234535,74.012383 
	C59.300587,75.522026 59.354576,76.755981 59.437218,78.644814 
	C54.582291,78.427040 50.020229,78.222404 45.335430,77.601288 
z"/>
<path fill="#1C272D" opacity="1.000000" stroke="none" 
	d="
M15.395821,50.909660 
	C16.492371,51.401474 17.157890,51.909355 17.923565,52.733879 
	C18.014849,61.035980 18.005976,69.021439 17.978691,77.471039 
	C16.709934,77.935196 15.459587,77.935196 13.963298,77.935196 
	C13.963298,69.217339 13.946023,60.824516 14.006138,52.432243 
	C14.009751,51.927807 14.630958,51.427792 15.395821,50.909660 
z"/>
</svg>
